<svg xmlns="http://www.w3.org/2000/svg" width="1024" height="1024" viewBox="0 0 1024 1024"><path d="M 189.14 684.68 C 189.45 685.16 189.90 685.77 190.28 686.32 C 190.66 686.87 191.04 687.42 191.42 687.96 C 191.80 688.51 192.18 689.06 192.57 689.60 C 192.97 690.13 193.38 690.66 193.78 691.19 C 194.18 691.72 194.58 692.26 194.99 692.79 C 195.39 693.32 195.80 693.84 196.21 694.37 C 196.62 694.89 197.04 695.41 197.46 695.93 C 197.87 696.45 198.28 696.98 198.70 697.50 C 199.12 698.02 199.55 698.53 199.97 699.04 C 200.40 699.56 200.83 700.07 201.25 700.58 C 201.68 701.09 202.10 701.61 202.53 702.11 C 202.97 702.62 203.41 703.12 203.85 703.62 C 204.28 704.13 204.72 704.63 205.16 705.13 C 205.60 705.63 206.03 706.14 206.48 706.64 C 206.92 707.13 207.37 707.62 207.82 708.11 C 208.27 708.61 208.72 709.10 209.17 709.59 C 209.62 710.09 210.07 710.58 210.53 711.06 C 210.98 711.55 211.44 712.03 211.90 712.52 C 212.36 713.00 212.81 713.49 213.28 713.97 C 213.74 714.45 214.20 714.93 214.67 715.40 C 215.14 715.88 215.61 716.35 216.07 716.83 C 216.54 717.30 217.01 717.78 217.48 718.25 C 217.95 718.72 218.43 719.19 218.90 719.65 C 219.38 720.12 219.86 720.58 220.34 721.05 C 220.81 721.51 221.29 721.98 221.77 722.44 C 222.25 722.90 222.74 723.35 223.23 723.81 C 223.72 724.27 224.20 724.72 224.69 725.18 C 225.18 725.63 225.66 726.09 226.15 726.54 C 226.65 726.99 227.14 727.43 227.64 727.88 C 228.13 728.33 228.63 728.77 229.12 729.22 C 229.62 729.66 230.12 730.10 230.62 730.54 C 231.12 730.98 231.63 731.42 232.13 731.86 C 232.63 732.29 233.14 732.73 233.64 733.17 C 234.15 733.60 234.66 734.03 235.17 734.46 C 235.68 734.89 236.19 735.31 236.70 735.74 C 237.21 736.17 237.72 736.60 238.24 737.03 C 238.75 737.45 239.27 737.86 239.79 738.28 C 240.31 738.70 240.83 739.12 241.35 739.54 C 241.87 739.95 242.39 740.37 242.91 740.79 C 243.44 741.20 243.96 741.60 244.49 742.01 C 245.02 742.42 245.54 742.83 246.07 743.24 C 246.60 743.65 247.13 744.05 247.66 744.45 C 248.19 744.86 248.73 745.25 249.26 745.65 C 249.80 746.05 250.33 746.45 250.86 746.85 C 251.40 747.25 251.94 747.64 252.48 748.03 C 253.02 748.42 253.56 748.81 254.10 749.20 C 254.64 749.59 255.18 749.98 255.72 750.37 C 256.27 750.76 256.81 751.13 257.36 751.52 C 257.91 751.90 258.46 752.28 259.00 752.66 C 259.55 753.04 260.10 753.42 260.65 753.80 C 261.20 754.17 261.76 754.54 262.31 754.91 C 262.86 755.28 263.42 755.65 263.97 756.02 C 264.53 756.39 265.08 756.76 265.64 757.13 C 266.20 757.49 266.76 757.85 267.32 758.21 C 267.88 758.57 268.44 758.93 269.00 759.29 C 269.56 759.65 270.12 760.01 270.69 760.37 C 271.25 760.72 271.82 761.07 272.39 761.42 C 272.95 761.77 273.52 762.13 274.09 762.48 C 274.66 762.82 275.23 763.17 275.80 763.51 C 276.37 763.86 276.94 764.20 277.51 764.54 C 278.09 764.88 278.66 765.23 279.23 765.57 C 279.80 765.90 280.38 766.24 280.96 766.57 C 281.54 766.90 282.12 767.23 282.69 767.57 C 283.27 767.90 283.85 768.24 284.43 768.56 C 285.01 768.89 285.59 769.21 286.18 769.53 C 286.76 769.86 287.34 770.18 287.92 770.50 C 288.51 770.83 289.09 771.15 289.68 771.47 C 290.26 771.79 290.85 772.10 291.44 772.41 C 292.03 772.72 292.62 773.04 293.21 773.35 C 293.80 773.66 294.38 773.98 294.98 774.28 C 295.57 774.59 296.16 774.89 296.76 775.20 C 297.35 775.50 297.94 775.81 298.54 776.11 C 299.13 776.41 299.73 776.71 300.32 777.01 C 300.92 777.30 301.52 777.60 302.12 777.89 C 302.71 778.19 303.31 778.48 303.91 778.78 C 304.51 779.07 305.11 779.35 305.71 779.64 C 306.31 779.93 306.92 780.21 307.52 780.50 C 308.12 780.78 308.72 781.07 309.33 781.35 C 309.93 781.63 310.54 781.91 311.15 782.19 C 311.75 782.46 312.36 782.74 312.97 783.01 C 313.57 783.29 314.18 783.57 314.79 783.84 C 315.40 784.11 316.01 784.38 316.62 784.64 C 317.23 784.91 317.84 785.18 318.45 785.44 C 319.06 785.71 319.67 785.98 320.29 786.24 C 320.90 786.50 321.52 786.75 322.13 787.01 C 322.75 787.27 323.36 787.53 323.98 787.78 C 324.59 788.04 325.21 788.30 325.83 788.55 C 326.44 788.80 327.06 789.04 327.68 789.29 C 328.30 789.54 328.92 789.79 329.54 790.04 C 330.16 790.28 330.78 790.53 331.40 790.77 C 332.02 791.01 332.64 791.25 333.27 791.48 C 333.89 791.72 334.51 791.97 335.13 792.20 C 335.76 792.44 336.38 792.67 337.01 792.90 C 337.63 793.13 338.26 793.36 338.88 793.59 C 339.51 793.82 340.13 794.05 340.76 794.28 C 341.39 794.51 342.02 794.73 342.65 794.95 C 343.27 795.17 343.90 795.39 344.53 795.61 C 345.16 795.83 345.79 796.06 346.42 796.27 C 347.05 796.49 347.68 796.70 348.32 796.91 C 348.95 797.12 349.58 797.34 350.21 797.55 C 350.85 797.76 351.48 797.97 352.11 798.18 C 352.74 798.39 353.38 798.59 354.02 798.79 C 354.65 798.99 355.29 799.19 355.92 799.40 C 356.56 799.60 357.19 799.80 357.83 800.00 C 358.46 800.20 359.10 800.39 359.74 800.58 C 360.38 800.77 361.02 800.97 361.66 801.16 C 362.29 801.35 362.93 801.55 363.57 801.73 C 364.21 801.92 364.85 802.10 365.49 802.29 C 366.13 802.47 366.77 802.66 367.42 802.84 C 368.06 803.02 368.70 803.21 369.34 803.38 C 369.98 803.56 370.63 803.73 371.27 803.91 C 371.91 804.09 372.56 804.26 373.20 804.44 C 373.84 804.61 374.49 804.78 375.13 804.95 C 375.78 805.12 376.42 805.28 377.07 805.45 C 377.71 805.62 378.36 805.78 379.01 805.95 C 379.65 806.11 380.30 806.27 380.95 806.43 C 381.59 806.59 382.24 806.75 382.89 806.90 C 383.54 807.06 384.18 807.22 384.83 807.38 C 385.48 807.53 386.13 807.68 386.78 807.83 C 387.43 807.98 388.08 808.13 388.73 808.28 C 389.38 808.43 390.03 808.58 390.68 808.72 C 391.33 808.87 391.98 809.01 392.63 809.15 C 393.29 809.29 393.94 809.43 394.59 809.57 C 395.24 809.71 395.89 809.85 396.54 809.99 C 397.20 810.12 397.85 810.25 398.51 810.38 C 399.16 810.51 399.81 810.65 400.47 810.78 C 401.12 810.91 401.77 811.04 402.43 811.17 C 403.08 811.30 403.74 811.41 404.39 811.54 C 405.05 811.66 405.70 811.78 406.36 811.90 C 407.01 812.02 407.67 812.15 408.33 812.27 C 408.98 812.38 409.64 812.49 410.30 812.61 C 410.95 812.72 411.61 812.84 412.27 812.95 C 412.92 813.06 413.58 813.18 414.24 813.28 C 414.90 813.39 415.56 813.49 416.21 813.60 C 416.87 813.70 417.53 813.81 418.19 813.91 C 418.85 814.02 419.51 814.12 420.17 814.22 C 420.82 814.32 421.49 814.41 422.14 814.51 C 422.80 814.60 423.46 814.70 424.12 814.80 C 424.78 814.89 425.44 814.98 426.10 815.07 C 426.76 815.16 427.43 815.25 428.09 815.34 C 428.75 815.42 429.41 815.51 430.07 815.60 C 430.73 815.68 431.39 815.77 432.05 815.85 C 432.72 815.93 433.38 816.01 434.04 816.09 C 434.70 816.16 435.36 816.24 436.03 816.32 C 436.69 816.40 437.35 816.47 438.01 816.54 C 438.68 816.62 439.34 816.68 440.00 816.75 C 440.67 816.82 441.33 816.90 441.99 816.96 C 442.65 817.03 443.32 817.10 443.98 817.16 C 444.65 817.22 445.31 817.28 445.97 817.34 C 446.64 817.40 447.30 817.47 447.97 817.53 C 448.63 817.59 449.29 817.64 449.96 817.69 C 450.62 817.75 451.29 817.80 451.95 817.85 C 452.62 817.91 453.28 817.96 453.95 818.01 C 454.61 818.06 455.28 818.10 455.94 818.15 C 456.61 818.20 457.27 818.24 457.94 818.28 C 458.60 818.33 459.27 818.37 459.93 818.41 C 460.60 818.46 461.26 818.49 461.93 818.53 C 462.59 818.56 463.26 818.60 463.93 818.63 C 464.59 818.67 465.26 818.71 465.92 818.74 C 466.59 818.77 467.26 818.80 467.92 818.82 C 468.59 818.85 469.25 818.88 469.92 818.90 C 470.59 818.93 471.25 818.96 471.92 818.99 C 472.58 819.01 473.25 819.02 473.92 819.04 C 474.58 819.06 475.25 819.08 475.92 819.10 C 476.58 819.12 477.25 819.14 477.92 819.15 C 478.58 819.17 479.25 819.17 479.92 819.18 C 480.58 819.19 481.25 819.20 481.92 819.21 C 482.58 819.22 483.25 819.23 483.91 819.24 C 484.58 819.24 485.25 819.24 485.91 819.24 C 486.58 819.24 487.25 819.25 487.91 819.25 C 488.58 819.25 489.25 819.25 489.91 819.25 C 490.58 819.24 491.25 819.23 491.91 819.22 C 492.58 819.22 493.25 819.21 493.91 819.20 C 494.58 819.19 495.25 819.19 495.91 819.18 C 496.58 819.16 497.25 819.14 497.91 819.13 C 498.58 819.11 499.25 819.10 499.91 819.08 C 500.58 819.06 501.25 819.05 501.91 819.03 C 502.58 819.00 503.24 818.98 503.91 818.95 C 504.58 818.93 505.24 818.91 505.91 818.88 C 506.58 818.85 507.24 818.83 507.91 818.80 C 508.57 818.77 509.24 818.73 509.91 818.70 C 510.57 818.66 511.24 818.63 511.90 818.60 C 512.57 818.56 513.23 818.53 513.90 818.49 C 514.57 818.45 515.23 818.41 515.90 818.36 C 516.56 818.32 517.23 818.28 517.89 818.24 C 518.56 818.20 519.22 818.15 519.89 818.10 C 520.55 818.05 521.22 818.00 521.88 817.95 C 522.55 817.90 523.21 817.86 523.88 817.80 C 524.54 817.75 525.21 817.69 525.87 817.64 C 526.53 817.58 527.20 817.52 527.86 817.46 C 528.53 817.40 529.19 817.35 529.85 817.29 C 530.52 817.22 531.18 817.16 531.84 817.09 C 532.51 817.03 533.17 816.96 533.83 816.89 C 534.50 816.82 535.16 816.76 535.82 816.69 C 536.49 816.62 537.15 816.54 537.81 816.47 C 538.47 816.39 539.14 816.32 539.80 816.24 C 540.46 816.17 541.12 816.09 541.79 816.02 C 542.45 815.94 543.11 815.85 543.77 815.77 C 544.43 815.68 545.09 815.60 545.75 815.51 C 546.42 815.43 547.08 815.35 547.74 815.26 C 548.40 815.17 549.06 815.08 549.72 814.98 C 550.38 814.89 551.04 814.80 551.70 814.71 C 552.36 814.61 553.02 814.52 553.68 814.43 C 554.34 814.33 555.00 814.22 555.66 814.12 C 556.32 814.02 556.97 813.92 557.63 813.82 C 558.29 813.72 558.95 813.62 559.61 813.51 C 560.27 813.41 560.93 813.29 561.58 813.18 C 562.24 813.07 562.90 812.96 563.55 812.85 C 564.21 812.74 564.87 812.63 565.53 812.52 C 566.18 812.40 566.84 812.28 567.49 812.16 C 568.15 812.04 568.81 811.92 569.46 811.80 C 570.12 811.68 570.77 811.56 571.43 811.44 C 572.08 811.31 572.74 811.18 573.39 811.06 C 574.05 810.93 574.70 810.80 575.36 810.67 C 576.01 810.54 576.66 810.42 577.32 810.28 C 577.97 810.15 578.62 810.01 579.27 809.87 C 579.93 809.74 580.58 809.60 581.23 809.46 C 581.88 809.33 582.54 809.19 583.19 809.04 C 583.84 808.90 584.49 808.75 585.14 808.61 C 585.79 808.46 586.44 808.32 587.09 808.17 C 587.74 808.03 588.39 807.88 589.04 807.72 C 589.69 807.57 590.34 807.42 590.99 807.26 C 591.64 807.11 592.28 806.96 592.93 806.80 C 593.58 806.65 594.23 806.48 594.87 806.32 C 595.52 806.16 596.17 806.00 596.81 805.84 C 597.46 805.67 598.11 805.51 598.75 805.35 C 599.40 805.18 600.04 805.01 600.69 804.84 C 601.33 804.67 601.98 804.50 602.62 804.33 C 603.27 804.16 603.91 803.99 604.55 803.81 C 605.20 803.64 605.84 803.46 606.48 803.28 C 607.12 803.10 607.76 802.92 608.41 802.74 C 609.05 802.56 609.69 802.38 610.33 802.19 C 610.97 802.01 611.61 801.82 612.25 801.63 C 612.89 801.44 613.53 801.25 614.17 801.06 C 614.81 800.87 615.45 800.69 616.09 800.49 C 616.72 800.30 617.36 800.10 617.99 799.90 C 618.63 799.70 619.27 799.50 619.90 799.30 C 620.54 799.11 621.18 798.91 621.81 798.71 C 622.45 798.50 623.08 798.29 623.71 798.08 C 624.35 797.88 624.98 797.67 625.62 797.46 C 626.25 797.25 626.88 797.05 627.51 796.83 C 628.15 796.62 628.78 796.40 629.41 796.19 C 630.04 795.97 630.67 795.76 631.30 795.54 C 631.93 795.32 632.56 795.10 633.19 794.88 C 633.81 794.66 634.44 794.43 635.07 794.20 C 635.70 793.98 636.32 793.76 636.95 793.53 C 637.58 793.30 638.20 793.07 638.83 792.84 C 639.45 792.61 640.08 792.37 640.70 792.14 C 641.33 791.90 641.95 791.67 642.57 791.44 C 643.20 791.20 643.82 790.96 644.44 790.72 C 645.06 790.47 645.68 790.23 646.30 789.99 C 646.92 789.74 647.55 789.50 648.16 789.26 C 648.78 789.01 649.40 788.76 650.02 788.51 C 650.64 788.25 651.25 788.00 651.87 787.75 C 652.49 787.50 653.11 787.25 653.72 786.99 C 654.34 786.74 654.95 786.47 655.56 786.21 C 656.17 785.95 656.79 785.69 657.40 785.43 C 658.01 785.16 658.63 784.91 659.24 784.64 C 659.85 784.37 660.46 784.10 661.07 783.83 C 661.68 783.56 662.29 783.29 662.90 783.02 C 663.50 782.74 664.11 782.47 664.72 782.20 C 665.33 781.92 665.93 781.64 666.54 781.36 C 667.14 781.08 667.75 780.80 668.35 780.52 C 668.96 780.24 669.56 779.96 670.16 779.67 C 670.76 779.38 671.36 779.09 671.96 778.80 C 672.57 778.51 673.17 778.23 673.77 777.94 C 674.37 777.64 674.96 777.35 675.56 777.05 C 676.16 776.76 676.75 776.46 677.35 776.16 C 677.95 775.86 678.54 775.57 679.14 775.26 C 679.73 774.96 680.33 774.66 680.92 774.35 C 681.51 774.04 682.10 773.74 682.69 773.43 C 683.28 773.12 683.88 772.82 684.47 772.51 C 685.06 772.19 685.64 771.88 686.23 771.56 C 686.82 771.24 687.40 770.93 687.99 770.61 C 688.58 770.29 689.16 769.98 689.75 769.66 C 690.33 769.34 690.91 769.01 691.49 768.68 C 692.07 768.35 692.66 768.03 693.24 767.70 C 693.82 767.37 694.40 767.05 694.98 766.72 C 695.56 766.38 696.13 766.05 696.71 765.71 C 697.28 765.37 697.86 765.04 698.43 764.70 C 699.01 764.37 699.58 764.03 700.16 763.69 C 700.73 763.34 701.30 763.00 701.87 762.65 C 702.44 762.31 703.01 761.97 703.58 761.62 C 704.15 761.27 704.72 760.92 705.28 760.57 C 705.85 760.21 706.41 759.86 706.98 759.50 C 707.54 759.15 708.11 758.80 708.67 758.44 C 709.23 758.08 709.79 757.72 710.35 757.36 C 710.91 757.00 711.47 756.63 712.03 756.27 C 712.59 755.90 713.15 755.54 713.70 755.18 C 714.26 754.81 714.81 754.43 715.36 754.06 C 715.92 753.69 716.47 753.31 717.02 752.94 C 717.57 752.57 718.13 752.20 718.68 751.82 C 719.22 751.44 719.77 751.05 720.31 750.67 C 720.86 750.29 721.41 749.91 721.95 749.52 C 722.50 749.14 723.04 748.75 723.58 748.37 C 724.12 747.98 724.66 747.58 725.20 747.19 C 725.74 746.80 726.28 746.41 726.82 746.02 C 727.36 745.62 727.89 745.22 728.43 744.83 C 728.96 744.43 729.49 744.02 730.02 743.62 C 730.56 743.22 731.09 742.82 731.62 742.42 C 732.15 742.01 732.68 741.60 733.20 741.19 C 733.73 740.78 734.25 740.37 734.78 739.96 C 735.30 739.55 735.83 739.15 736.35 738.73 C 736.88 738.32 737.39 737.89 737.91 737.47 C 738.43 737.05 738.95 736.63 739.46 736.21 C 739.98 735.79 740.50 735.37 741.01 734.95 C 741.53 734.52 742.03 734.09 742.54 733.66 C 743.05 733.23 743.56 732.80 744.07 732.37 C 744.58 731.94 745.09 731.51 745.59 731.07 C 746.10 730.64 746.60 730.20 747.10 729.76 C 747.60 729.32 748.11 728.89 748.61 728.44 C 749.11 728.00 749.60 727.56 750.10 727.11 C 750.59 726.66 751.09 726.22 751.58 725.77 C 752.07 725.32 752.57 724.88 753.06 724.42 C 753.55 723.97 754.04 723.51 754.52 723.06 C 755.01 722.60 755.49 722.14 755.98 721.69 C 756.46 721.23 756.95 720.78 757.43 720.31 C 757.91 719.85 758.39 719.38 758.86 718.92 C 759.34 718.45 759.82 717.98 760.29 717.52 C 760.77 717.05 761.24 716.58 761.71 716.11 C 762.18 715.64 762.65 715.16 763.11 714.68 C 763.58 714.21 764.05 713.73 764.52 713.26 C 764.98 712.78 765.44 712.30 765.90 711.82 C 766.36 711.33 766.82 710.85 767.28 710.36 C 767.74 709.88 768.20 709.40 768.65 708.91 C 769.10 708.42 769.55 707.93 770.00 707.43 C 770.45 706.94 770.90 706.45 771.35 705.95 C 771.79 705.46 772.25 704.97 772.69 704.47 C 773.13 703.97 773.57 703.47 774.00 702.96 C 774.44 702.46 774.88 701.96 775.32 701.45 C 775.75 700.95 776.19 700.45 776.62 699.94 C 777.05 699.43 777.48 698.92 777.90 698.40 C 778.33 697.89 778.76 697.38 779.18 696.87 C 779.61 696.35 780.03 695.84 780.45 695.32 C 780.87 694.80 781.28 694.27 781.69 693.75 C 782.11 693.23 782.53 692.71 782.94 692.19 C 783.35 691.66 783.75 691.13 784.16 690.60 C 784.56 690.07 784.96 689.54 785.36 689.01 C 785.76 688.47 786.18 687.95 786.57 687.41 C 786.96 686.87 787.33 686.32 787.72 685.77 C 788.10 685.23 788.48 684.68 788.86 684.13 C 789.23 683.58 789.63 683.04 789.98 682.48 C 790.34 681.91 790.70 681.34 790.99 680.75 C 791.29 680.16 791.55 679.55 791.77 678.93 C 791.99 678.30 792.20 677.65 792.30 677.00 C 792.41 676.35 792.40 675.67 792.39 675.01 C 792.39 674.35 792.39 673.68 792.29 673.03 C 792.19 672.37 792.00 671.72 791.79 671.09 C 791.57 670.46 791.29 669.86 791.00 669.27 C 790.70 668.68 790.41 668.06 790.01 667.53 C 789.61 667.00 789.11 666.55 788.62 666.09 C 788.14 665.64 787.65 665.19 787.11 664.81 C 786.58 664.42 785.99 664.07 785.39 663.79 C 784.79 663.51 784.16 663.31 783.52 663.12 C 782.89 662.92 782.25 662.70 781.59 662.62 C 780.93 662.53 780.25 662.57 779.59 662.60 C 778.93 662.64 778.27 662.69 777.62 662.81 C 776.97 662.93 776.30 663.09 775.68 663.32 C 775.06 663.55 774.48 663.88 773.90 664.21 C 773.33 664.53 772.74 664.86 772.22 665.27 C 771.70 665.68 771.26 666.20 770.79 666.67 C 770.33 667.15 769.87 667.63 769.41 668.11 C 768.95 668.60 768.51 669.10 768.06 669.59 C 767.61 670.08 767.16 670.57 766.71 671.06 C 766.26 671.55 765.81 672.05 765.36 672.54 C 764.91 673.03 764.46 673.53 764.01 674.02 C 763.56 674.51 763.11 675.00 762.65 675.49 C 762.20 675.97 761.74 676.46 761.28 676.94 C 760.83 677.43 760.38 677.92 759.92 678.40 C 759.46 678.89 758.99 679.36 758.53 679.84 C 758.06 680.32 757.60 680.80 757.14 681.28 C 756.67 681.76 756.20 682.23 755.73 682.71 C 755.26 683.18 754.79 683.65 754.32 684.12 C 753.85 684.59 753.38 685.07 752.91 685.53 C 752.43 686.00 751.95 686.46 751.47 686.92 C 750.99 687.39 750.51 687.85 750.03 688.31 C 749.55 688.77 749.07 689.23 748.58 689.69 C 748.09 690.15 747.61 690.60 747.12 691.06 C 746.63 691.51 746.15 691.97 745.66 692.42 C 745.16 692.87 744.67 693.31 744.17 693.76 C 743.68 694.21 743.18 694.66 742.69 695.10 C 742.19 695.54 741.69 695.99 741.19 696.43 C 740.69 696.87 740.18 697.30 739.68 697.74 C 739.18 698.18 738.68 698.62 738.17 699.05 C 737.67 699.49 737.15 699.91 736.64 700.34 C 736.13 700.77 735.63 701.20 735.11 701.63 C 734.60 702.06 734.09 702.48 733.57 702.91 C 733.06 703.33 732.54 703.75 732.02 704.17 C 731.50 704.59 730.99 705.01 730.47 705.43 C 729.95 705.84 729.42 706.25 728.90 706.67 C 728.37 707.08 727.85 707.49 727.32 707.90 C 726.80 708.31 726.27 708.72 725.74 709.12 C 725.21 709.53 724.68 709.93 724.15 710.33 C 723.62 710.73 723.09 711.14 722.55 711.54 C 722.02 711.94 721.48 712.33 720.94 712.72 C 720.40 713.12 719.87 713.51 719.33 713.90 C 718.79 714.30 718.25 714.69 717.71 715.08 C 717.16 715.46 716.62 715.84 716.07 716.23 C 715.53 716.61 714.99 717.00 714.44 717.38 C 713.89 717.76 713.34 718.14 712.79 718.52 C 712.24 718.89 711.69 719.27 711.14 719.64 C 710.59 720.02 710.04 720.39 709.48 720.76 C 708.93 721.13 708.37 721.50 707.81 721.86 C 707.25 722.23 706.70 722.60 706.14 722.96 C 705.58 723.33 705.02 723.68 704.46 724.04 C 703.90 724.40 703.33 724.76 702.77 725.12 C 702.21 725.47 701.64 725.83 701.08 726.18 C 700.51 726.54 699.94 726.88 699.37 727.23 C 698.81 727.58 698.24 727.93 697.67 728.28 C 697.10 728.62 696.53 728.96 695.95 729.31 C 695.38 729.65 694.81 729.98 694.23 730.32 C 693.66 730.66 693.09 731.01 692.51 731.34 C 691.94 731.68 691.35 732.00 690.78 732.33 C 690.20 732.66 689.62 733.00 689.04 733.33 C 688.46 733.65 687.88 733.98 687.30 734.30 C 686.71 734.63 686.13 734.95 685.54 735.27 C 684.96 735.59 684.38 735.92 683.79 736.24 C 683.21 736.55 682.62 736.86 682.03 737.18 C 681.44 737.49 680.85 737.80 680.26 738.11 C 679.67 738.43 679.08 738.74 678.49 739.04 C 677.90 739.35 677.30 739.65 676.71 739.96 C 676.12 740.26 675.52 740.57 674.93 740.87 C 674.33 741.17 673.74 741.46 673.14 741.76 C 672.54 742.05 671.94 742.35 671.35 742.64 C 670.75 742.94 670.15 743.23 669.55 743.52 C 668.95 743.81 668.35 744.10 667.74 744.38 C 667.14 744.67 666.54 744.96 665.94 745.24 C 665.33 745.53 664.73 745.81 664.12 746.08 C 663.52 746.36 662.91 746.64 662.31 746.92 C 661.70 747.19 661.09 747.48 660.49 747.75 C 659.88 748.02 659.27 748.29 658.66 748.56 C 658.05 748.82 657.44 749.10 656.83 749.36 C 656.22 749.63 655.60 749.89 654.99 750.16 C 654.38 750.42 653.76 750.68 653.15 750.94 C 652.54 751.20 651.92 751.46 651.31 751.72 C 650.69 751.97 650.08 752.22 649.46 752.48 C 648.84 752.73 648.22 752.98 647.61 753.23 C 646.99 753.48 646.37 753.73 645.75 753.98 C 645.13 754.23 644.51 754.47 643.89 754.71 C 643.27 754.95 642.65 755.20 642.03 755.44 C 641.40 755.68 640.78 755.91 640.16 756.15 C 639.53 756.39 638.91 756.62 638.28 756.85 C 637.66 757.09 637.04 757.32 636.41 757.55 C 635.79 757.78 635.16 758.01 634.53 758.23 C 633.90 758.46 633.28 758.69 632.65 758.91 C 632.02 759.13 631.39 759.36 630.76 759.58 C 630.13 759.80 629.50 760.01 628.87 760.23 C 628.24 760.45 627.61 760.67 626.98 760.88 C 626.35 761.09 625.72 761.30 625.08 761.51 C 624.45 761.72 623.82 761.93 623.18 762.14 C 622.55 762.35 621.92 762.56 621.28 762.76 C 620.65 762.97 620.01 763.16 619.38 763.36 C 618.74 763.56 618.11 763.77 617.47 763.96 C 616.83 764.16 616.20 764.36 615.56 764.55 C 614.92 764.75 614.28 764.94 613.64 765.13 C 613.00 765.32 612.37 765.52 611.73 765.71 C 611.09 765.89 610.45 766.08 609.81 766.26 C 609.17 766.44 608.52 766.63 607.88 766.81 C 607.24 766.99 606.60 767.18 605.96 767.36 C 605.32 767.54 604.67 767.71 604.03 767.88 C 603.39 768.06 602.74 768.24 602.10 768.41 C 601.46 768.58 600.81 768.75 600.17 768.92 C 599.52 769.09 598.88 769.26 598.23 769.42 C 597.59 769.59 596.94 769.76 596.29 769.92 C 595.65 770.09 595.00 770.24 594.35 770.40 C 593.71 770.56 593.06 770.72 592.41 770.88 C 591.76 771.04 591.12 771.20 590.47 771.35 C 589.82 771.50 589.17 771.65 588.52 771.80 C 587.87 771.95 587.22 772.11 586.57 772.25 C 585.92 772.40 585.27 772.55 584.62 772.69 C 583.97 772.84 583.32 772.98 582.67 773.12 C 582.01 773.26 581.36 773.41 580.71 773.55 C 580.06 773.69 579.41 773.82 578.75 773.95 C 578.10 774.09 577.45 774.22 576.79 774.36 C 576.14 774.49 575.49 774.62 574.83 774.75 C 574.18 774.88 573.52 775.01 572.87 775.13 C 572.22 775.26 571.56 775.39 570.91 775.51 C 570.25 775.64 569.60 775.76 568.94 775.88 C 568.28 776.00 567.63 776.11 566.97 776.23 C 566.32 776.35 565.66 776.47 565.00 776.59 C 564.35 776.70 563.69 776.81 563.03 776.92 C 562.37 777.03 561.72 777.14 561.06 777.25 C 560.40 777.36 559.74 777.47 559.09 777.58 C 558.43 777.68 557.77 777.78 557.11 777.88 C 556.45 777.98 555.79 778.09 555.13 778.19 C 554.47 778.29 553.81 778.39 553.15 778.48 C 552.50 778.58 551.83 778.67 551.17 778.77 C 550.51 778.86 549.86 778.96 549.19 779.05 C 548.53 779.14 547.87 779.22 547.21 779.31 C 546.55 779.40 545.89 779.48 545.23 779.57 C 544.57 779.65 543.91 779.74 543.25 779.83 C 542.58 779.91 541.92 779.98 541.26 780.06 C 540.60 780.14 539.94 780.22 539.27 780.29 C 538.61 780.37 537.95 780.45 537.29 780.52 C 536.62 780.59 535.96 780.66 535.30 780.73 C 534.63 780.80 533.97 780.87 533.31 780.94 C 532.64 781.01 531.98 781.07 531.32 781.13 C 530.65 781.20 529.99 781.26 529.33 781.32 C 528.66 781.38 528.00 781.45 527.33 781.51 C 526.67 781.57 526.01 781.62 525.34 781.67 C 524.68 781.73 524.01 781.78 523.35 781.83 C 522.68 781.89 522.02 781.94 521.35 781.99 C 520.69 782.04 520.02 782.08 519.36 782.13 C 518.69 782.18 518.03 782.22 517.36 782.27 C 516.70 782.31 516.03 782.35 515.37 782.39 C 514.70 782.43 514.04 782.47 513.37 782.51 C 512.71 782.55 512.04 782.59 511.37 782.62 C 510.71 782.66 510.04 782.69 509.38 782.72 C 508.71 782.75 508.04 782.78 507.38 782.81 C 506.71 782.84 506.05 782.87 505.38 782.90 C 504.71 782.93 504.05 782.94 503.38 782.97 C 502.72 782.99 502.05 783.01 501.38 783.04 C 500.72 783.06 500.05 783.08 499.38 783.09 C 498.72 783.11 498.05 783.12 497.38 783.14 C 496.72 783.15 496.05 783.17 495.39 783.18 C 494.72 783.19 494.05 783.20 493.39 783.21 C 492.72 783.22 492.05 783.22 491.39 783.23 C 490.72 783.24 490.05 783.25 489.39 783.25 C 488.72 783.25 488.05 783.25 487.39 783.25 C 486.72 783.25 486.05 783.25 485.39 783.24 C 484.72 783.24 484.05 783.24 483.39 783.23 C 482.72 783.23 482.05 783.22 481.39 783.21 C 480.72 783.20 480.05 783.19 479.39 783.18 C 478.72 783.17 478.05 783.16 477.39 783.14 C 476.72 783.12 476.05 783.11 475.39 783.09 C 474.72 783.07 474.05 783.06 473.39 783.04 C 472.72 783.02 472.06 782.99 471.39 782.97 C 470.72 782.94 470.06 782.92 469.39 782.89 C 468.72 782.87 468.06 782.84 467.39 782.82 C 466.73 782.79 466.06 782.75 465.39 782.72 C 464.73 782.69 464.06 782.65 463.40 782.62 C 462.73 782.59 462.07 782.55 461.40 782.51 C 460.73 782.47 460.07 782.43 459.40 782.39 C 458.74 782.35 458.07 782.31 457.41 782.27 C 456.74 782.22 456.08 782.18 455.41 782.13 C 454.75 782.08 454.08 782.03 453.42 781.98 C 452.75 781.93 452.09 781.89 451.42 781.84 C 450.76 781.78 450.09 781.72 449.43 781.67 C 448.77 781.61 448.10 781.56 447.44 781.50 C 446.77 781.44 446.11 781.38 445.45 781.32 C 444.78 781.26 444.12 781.19 443.45 781.13 C 442.79 781.06 442.13 781.00 441.46 780.93 C 440.80 780.87 440.14 780.79 439.47 780.72 C 438.81 780.65 438.15 780.58 437.49 780.51 C 436.82 780.43 436.16 780.37 435.50 780.29 C 434.84 780.21 434.17 780.13 433.51 780.05 C 432.85 779.97 432.19 779.89 431.53 779.81 C 430.87 779.73 430.20 779.65 429.54 779.56 C 428.88 779.47 428.22 779.38 427.56 779.29 C 426.90 779.21 426.24 779.12 425.58 779.03 C 424.92 778.94 424.26 778.84 423.60 778.75 C 422.94 778.65 422.28 778.56 421.62 778.46 C 420.96 778.36 420.30 778.27 419.64 778.17 C 418.98 778.07 418.32 777.96 417.66 777.86 C 417.01 777.76 416.35 777.65 415.69 777.55 C 415.03 777.44 414.37 777.34 413.71 777.23 C 413.06 777.12 412.40 777.00 411.74 776.89 C 411.09 776.78 410.43 776.67 409.77 776.55 C 409.12 776.44 408.46 776.32 407.80 776.20 C 407.15 776.08 406.49 775.96 405.84 775.84 C 405.18 775.72 404.52 775.60 403.87 775.47 C 403.21 775.35 402.56 775.22 401.91 775.09 C 401.25 774.96 400.60 774.83 399.94 774.70 C 399.29 774.57 398.64 774.45 397.98 774.31 C 397.33 774.18 396.68 774.04 396.03 773.90 C 395.37 773.76 394.72 773.63 394.07 773.49 C 393.42 773.35 392.77 773.21 392.11 773.06 C 391.46 772.92 390.81 772.77 390.16 772.63 C 389.51 772.48 388.86 772.34 388.21 772.19 C 387.56 772.04 386.91 771.89 386.26 771.73 C 385.62 771.58 384.97 771.43 384.32 771.27 C 383.67 771.12 383.02 770.96 382.37 770.80 C 381.73 770.65 381.08 770.48 380.43 770.32 C 379.79 770.16 379.14 770.00 378.49 769.83 C 377.85 769.67 377.20 769.50 376.56 769.33 C 375.91 769.16 375.27 768.99 374.62 768.82 C 373.98 768.65 373.33 768.48 372.69 768.31 C 372.05 768.13 371.41 767.95 370.76 767.77 C 370.12 767.60 369.48 767.42 368.84 767.24 C 368.19 767.06 367.55 766.88 366.91 766.69 C 366.27 766.51 365.63 766.32 364.99 766.13 C 364.35 765.95 363.71 765.76 363.07 765.57 C 362.43 765.38 361.80 765.19 361.16 764.99 C 360.52 764.80 359.88 764.60 359.25 764.41 C 358.61 764.21 357.97 764.02 357.33 763.82 C 356.70 763.62 356.07 763.41 355.43 763.20 C 354.80 763.00 354.16 762.80 353.53 762.59 C 352.89 762.39 352.26 762.18 351.63 761.97 C 350.99 761.76 350.36 761.54 349.73 761.33 C 349.10 761.12 348.47 760.91 347.84 760.69 C 347.21 760.48 346.58 760.25 345.95 760.03 C 345.32 759.81 344.69 759.59 344.06 759.37 C 343.43 759.15 342.80 758.93 342.18 758.70 C 341.55 758.47 340.92 758.24 340.30 758.01 C 339.67 757.78 339.05 757.55 338.42 757.32 C 337.80 757.09 337.17 756.85 336.55 756.62 C 335.93 756.38 335.31 756.14 334.68 755.90 C 334.06 755.66 333.44 755.42 332.82 755.18 C 332.19 754.94 331.58 754.69 330.96 754.44 C 330.34 754.19 329.72 753.95 329.10 753.70 C 328.48 753.45 327.86 753.20 327.25 752.95 C 326.63 752.69 326.02 752.43 325.40 752.18 C 324.79 751.92 324.17 751.67 323.56 751.41 C 322.94 751.15 322.33 750.88 321.72 750.62 C 321.11 750.35 320.49 750.09 319.88 749.82 C 319.27 749.56 318.66 749.29 318.05 749.02 C 317.44 748.75 316.83 748.48 316.23 748.20 C 315.62 747.93 315.01 747.66 314.40 747.38 C 313.80 747.10 313.19 746.82 312.59 746.54 C 311.98 746.26 311.38 745.97 310.78 745.69 C 310.17 745.41 309.57 745.13 308.97 744.84 C 308.36 744.56 307.77 744.26 307.17 743.97 C 306.57 743.67 305.97 743.38 305.37 743.09 C 304.77 742.80 304.17 742.50 303.58 742.20 C 302.98 741.91 302.39 741.60 301.79 741.30 C 301.20 741.00 300.60 740.70 300.01 740.40 C 299.42 740.09 298.83 739.78 298.24 739.47 C 297.65 739.16 297.05 738.85 296.47 738.54 C 295.88 738.23 295.29 737.92 294.70 737.60 C 294.11 737.29 293.53 736.97 292.94 736.65 C 292.36 736.33 291.77 736.01 291.19 735.69 C 290.60 735.37 290.02 735.04 289.44 734.71 C 288.86 734.38 288.28 734.06 287.70 733.73 C 287.12 733.40 286.54 733.07 285.96 732.74 C 285.39 732.40 284.81 732.06 284.24 731.73 C 283.66 731.39 283.09 731.05 282.51 730.71 C 281.94 730.37 281.37 730.03 280.80 729.69 C 280.23 729.34 279.66 728.99 279.09 728.65 C 278.52 728.30 277.95 727.96 277.38 727.60 C 276.82 727.25 276.25 726.89 275.69 726.54 C 275.13 726.18 274.56 725.83 274.00 725.47 C 273.44 725.11 272.87 724.75 272.32 724.39 C 271.76 724.03 271.20 723.66 270.64 723.30 C 270.08 722.93 269.52 722.57 268.97 722.20 C 268.41 721.83 267.86 721.45 267.31 721.08 C 266.76 720.71 266.21 720.34 265.65 719.96 C 265.10 719.58 264.56 719.20 264.01 718.82 C 263.46 718.44 262.92 718.06 262.37 717.68 C 261.82 717.29 261.28 716.91 260.73 716.53 C 260.19 716.14 259.65 715.74 259.12 715.35 C 258.58 714.96 258.04 714.57 257.50 714.18 C 256.96 713.78 256.42 713.39 255.89 712.99 C 255.35 712.59 254.82 712.19 254.29 711.78 C 253.76 711.38 253.22 710.99 252.69 710.58 C 252.16 710.18 251.64 709.76 251.12 709.35 C 250.59 708.94 250.06 708.53 249.54 708.12 C 249.01 707.71 248.49 707.30 247.97 706.88 C 247.45 706.46 246.93 706.04 246.42 705.62 C 245.90 705.20 245.37 704.79 244.86 704.37 C 244.34 703.94 243.84 703.51 243.33 703.08 C 242.81 702.66 242.30 702.23 241.79 701.80 C 241.28 701.37 240.77 700.94 240.27 700.51 C 239.76 700.07 239.26 699.63 238.76 699.19 C 238.25 698.76 237.75 698.33 237.25 697.88 C 236.75 697.44 236.25 697.00 235.76 696.55 C 235.26 696.10 234.76 695.66 234.27 695.21 C 233.77 694.77 233.28 694.32 232.79 693.87 C 232.30 693.41 231.81 692.96 231.33 692.50 C 230.84 692.05 230.35 691.60 229.86 691.14 C 229.38 690.68 228.90 690.22 228.42 689.76 C 227.94 689.29 227.46 688.83 226.98 688.37 C 226.50 687.90 226.02 687.44 225.55 686.97 C 225.08 686.50 224.61 686.03 224.13 685.56 C 223.66 685.09 223.19 684.62 222.72 684.14 C 222.25 683.67 221.79 683.19 221.32 682.71 C 220.86 682.23 220.39 681.75 219.93 681.27 C 219.47 680.79 219.01 680.31 218.55 679.83 C 218.09 679.34 217.64 678.86 217.18 678.37 C 216.73 677.88 216.27 677.40 215.81 676.91 C 215.36 676.42 214.91 675.93 214.46 675.44 C 214.01 674.94 213.56 674.45 213.11 673.96 C 212.66 673.47 212.21 672.97 211.76 672.48 C 211.31 671.99 210.86 671.50 210.41 671.01 C 209.96 670.52 209.52 670.02 209.06 669.54 C 208.60 669.05 208.13 668.58 207.65 668.12 C 207.16 667.67 206.69 667.19 206.15 666.81 C 205.61 666.43 205.01 666.10 204.41 665.82 C 203.81 665.54 203.19 665.32 202.56 665.12 C 201.93 664.92 201.28 664.70 200.62 664.62 C 199.97 664.53 199.29 664.58 198.63 664.61 C 197.96 664.64 197.30 664.67 196.65 664.79 C 196.00 664.91 195.34 665.09 194.72 665.32 C 194.10 665.56 193.52 665.87 192.93 666.19 C 192.35 666.51 191.75 666.82 191.23 667.23 C 190.71 667.64 190.26 668.16 189.83 668.65 C 189.39 669.15 188.97 669.66 188.60 670.21 C 188.23 670.76 187.88 671.35 187.61 671.95 C 187.35 672.56 187.18 673.21 187.01 673.85 C 186.84 674.49 186.67 675.14 186.60 675.80 C 186.53 676.45 186.56 677.14 186.61 677.80 C 186.66 678.46 186.77 679.11 186.90 679.76 C 187.04 680.41 187.19 681.07 187.44 681.69 C 187.69 682.30 188.12 682.93 188.40 683.43 C 188.69 683.93 188.82 684.20 189.14 684.68 Z" fill="#000000"/></svg>
