<svg xmlns="http://www.w3.org/2000/svg" width="1024" height="1024" viewBox="0 0 1024 1024"><path d="M 190.2 682.43 C 225.19 731.35 274.36 767.41 329.49 790.66 C 386.12 814.53 448.69 824.9 510 822.71 L 510 782.72 C 454.01 784.7 396.5 776.39 344.01 756.55 C 293.5 737.46 247.25 707.39 213.33 664.95 C 208.43 658.81 199.53 657.69 193.26 662.43 C 186.99 667.17 185.63 676.04 190.2 682.43 Z" fill="#000000"/><path d="M 510 815.71 C 565.85 813.72 621.96 801.21 672.62 777.36 C 722.07 754.08 765.87 720.08 797.8 675.43 C 802.37 669.04 801.01 660.17 794.74 655.43 C 788.47 650.69 779.57 651.81 774.67 657.95 C 744.06 696.26 703.31 724.56 658.43 743.74 C 611.76 763.69 560.63 773.93 510 775.72 Z" fill="#000000"/></svg>
